<mxfile host="app.diagrams.net" modified="2021-02-20T11:07:35.780Z" agent="5.0 (Macintosh; Intel Mac OS X 11_2_1) AppleWebKit/537.36 (KHTML, like Gecko) Chrome/88.0.4324.150 Safari/537.36" etag="Iy9F3ohpcBDnaaNoEs6q" version="14.4.2" type="github">
  <diagram id="R2lEEEUBdFMjLlhIrx00" name="Page-1">
    <mxGraphModel dx="946" dy="515" grid="1" gridSize="10" guides="1" tooltips="1" connect="1" arrows="1" fold="1" page="1" pageScale="1" pageWidth="850" pageHeight="1100" math="0" shadow="0" extFonts="Permanent Marker^https://fonts.googleapis.com/css?family=Permanent+Marker">
      <root>
        <mxCell id="0" />
        <mxCell id="1" parent="0" />
        <mxCell id="037IKLmDIAsnG5Udz_Qm-8" value="Authors" style="shape=table;startSize=30;container=1;collapsible=1;childLayout=tableLayout;fixedRows=1;rowLines=0;fontStyle=1;align=center;resizeLast=1;" vertex="1" parent="1">
          <mxGeometry x="50" y="90" width="180" height="280" as="geometry" />
        </mxCell>
        <mxCell id="037IKLmDIAsnG5Udz_Qm-9" value="" style="shape=partialRectangle;collapsible=0;dropTarget=0;pointerEvents=0;fillColor=none;top=0;left=0;bottom=1;right=0;points=[[0,0.5],[1,0.5]];portConstraint=eastwest;" vertex="1" parent="037IKLmDIAsnG5Udz_Qm-8">
          <mxGeometry y="30" width="180" height="30" as="geometry" />
        </mxCell>
        <mxCell id="037IKLmDIAsnG5Udz_Qm-10" value="PK" style="shape=partialRectangle;connectable=0;fillColor=none;top=0;left=0;bottom=0;right=0;fontStyle=1;overflow=hidden;" vertex="1" parent="037IKLmDIAsnG5Udz_Qm-9">
          <mxGeometry width="30" height="30" as="geometry" />
        </mxCell>
        <mxCell id="037IKLmDIAsnG5Udz_Qm-11" value="author_id" style="shape=partialRectangle;connectable=0;fillColor=none;top=0;left=0;bottom=0;right=0;align=left;spacingLeft=6;fontStyle=5;overflow=hidden;" vertex="1" parent="037IKLmDIAsnG5Udz_Qm-9">
          <mxGeometry x="30" width="150" height="30" as="geometry" />
        </mxCell>
        <mxCell id="037IKLmDIAsnG5Udz_Qm-12" value="" style="shape=partialRectangle;collapsible=0;dropTarget=0;pointerEvents=0;fillColor=none;top=0;left=0;bottom=0;right=0;points=[[0,0.5],[1,0.5]];portConstraint=eastwest;" vertex="1" parent="037IKLmDIAsnG5Udz_Qm-8">
          <mxGeometry y="60" width="180" height="30" as="geometry" />
        </mxCell>
        <mxCell id="037IKLmDIAsnG5Udz_Qm-13" value="" style="shape=partialRectangle;connectable=0;fillColor=none;top=0;left=0;bottom=0;right=0;editable=1;overflow=hidden;" vertex="1" parent="037IKLmDIAsnG5Udz_Qm-12">
          <mxGeometry width="30" height="30" as="geometry" />
        </mxCell>
        <mxCell id="037IKLmDIAsnG5Udz_Qm-14" value="name vars" style="shape=partialRectangle;connectable=0;fillColor=none;top=0;left=0;bottom=0;right=0;align=left;spacingLeft=6;overflow=hidden;" vertex="1" parent="037IKLmDIAsnG5Udz_Qm-12">
          <mxGeometry x="30" width="150" height="30" as="geometry" />
        </mxCell>
        <mxCell id="037IKLmDIAsnG5Udz_Qm-15" value="" style="shape=partialRectangle;collapsible=0;dropTarget=0;pointerEvents=0;fillColor=none;top=0;left=0;bottom=0;right=0;points=[[0,0.5],[1,0.5]];portConstraint=eastwest;" vertex="1" parent="037IKLmDIAsnG5Udz_Qm-8">
          <mxGeometry y="90" width="180" height="30" as="geometry" />
        </mxCell>
        <mxCell id="037IKLmDIAsnG5Udz_Qm-16" value="" style="shape=partialRectangle;connectable=0;fillColor=none;top=0;left=0;bottom=0;right=0;editable=1;overflow=hidden;" vertex="1" parent="037IKLmDIAsnG5Udz_Qm-15">
          <mxGeometry width="30" height="30" as="geometry" />
        </mxCell>
        <mxCell id="037IKLmDIAsnG5Udz_Qm-17" value="affiliation vars" style="shape=partialRectangle;connectable=0;fillColor=none;top=0;left=0;bottom=0;right=0;align=left;spacingLeft=6;overflow=hidden;" vertex="1" parent="037IKLmDIAsnG5Udz_Qm-15">
          <mxGeometry x="30" width="150" height="30" as="geometry" />
        </mxCell>
        <mxCell id="037IKLmDIAsnG5Udz_Qm-18" value="" style="shape=partialRectangle;collapsible=0;dropTarget=0;pointerEvents=0;fillColor=none;top=0;left=0;bottom=0;right=0;points=[[0,0.5],[1,0.5]];portConstraint=eastwest;" vertex="1" parent="037IKLmDIAsnG5Udz_Qm-8">
          <mxGeometry y="120" width="180" height="30" as="geometry" />
        </mxCell>
        <mxCell id="037IKLmDIAsnG5Udz_Qm-19" value="" style="shape=partialRectangle;connectable=0;fillColor=none;top=0;left=0;bottom=0;right=0;editable=1;overflow=hidden;" vertex="1" parent="037IKLmDIAsnG5Udz_Qm-18">
          <mxGeometry width="30" height="30" as="geometry" />
        </mxCell>
        <mxCell id="037IKLmDIAsnG5Udz_Qm-20" value="twitter handle" style="shape=partialRectangle;connectable=0;fillColor=none;top=0;left=0;bottom=0;right=0;align=left;spacingLeft=6;overflow=hidden;" vertex="1" parent="037IKLmDIAsnG5Udz_Qm-18">
          <mxGeometry x="30" width="150" height="30" as="geometry" />
        </mxCell>
        <mxCell id="037IKLmDIAsnG5Udz_Qm-21" value="" style="shape=partialRectangle;collapsible=0;dropTarget=0;pointerEvents=0;fillColor=none;top=0;left=0;bottom=0;right=0;points=[[0,0.5],[1,0.5]];portConstraint=eastwest;" vertex="1" parent="037IKLmDIAsnG5Udz_Qm-8">
          <mxGeometry y="150" width="180" height="30" as="geometry" />
        </mxCell>
        <mxCell id="037IKLmDIAsnG5Udz_Qm-22" value="" style="shape=partialRectangle;connectable=0;fillColor=none;top=0;left=0;bottom=0;right=0;editable=1;overflow=hidden;" vertex="1" parent="037IKLmDIAsnG5Udz_Qm-21">
          <mxGeometry width="30" height="30" as="geometry" />
        </mxCell>
        <mxCell id="037IKLmDIAsnG5Udz_Qm-23" value="location" style="shape=partialRectangle;connectable=0;fillColor=none;top=0;left=0;bottom=0;right=0;align=left;spacingLeft=6;overflow=hidden;" vertex="1" parent="037IKLmDIAsnG5Udz_Qm-21">
          <mxGeometry x="30" width="150" height="30" as="geometry" />
        </mxCell>
        <mxCell id="037IKLmDIAsnG5Udz_Qm-24" value="" style="shape=partialRectangle;collapsible=0;dropTarget=0;pointerEvents=0;fillColor=none;top=0;left=0;bottom=0;right=0;points=[[0,0.5],[1,0.5]];portConstraint=eastwest;" vertex="1" parent="037IKLmDIAsnG5Udz_Qm-8">
          <mxGeometry y="180" width="180" height="30" as="geometry" />
        </mxCell>
        <mxCell id="037IKLmDIAsnG5Udz_Qm-25" value="" style="shape=partialRectangle;connectable=0;fillColor=none;top=0;left=0;bottom=0;right=0;editable=1;overflow=hidden;" vertex="1" parent="037IKLmDIAsnG5Udz_Qm-24">
          <mxGeometry width="30" height="30" as="geometry" />
        </mxCell>
        <mxCell id="037IKLmDIAsnG5Udz_Qm-26" value="gender" style="shape=partialRectangle;connectable=0;fillColor=none;top=0;left=0;bottom=0;right=0;align=left;spacingLeft=6;overflow=hidden;" vertex="1" parent="037IKLmDIAsnG5Udz_Qm-24">
          <mxGeometry x="30" width="150" height="30" as="geometry" />
        </mxCell>
        <mxCell id="037IKLmDIAsnG5Udz_Qm-56" value="" style="shape=partialRectangle;collapsible=0;dropTarget=0;pointerEvents=0;fillColor=none;top=0;left=0;bottom=0;right=0;points=[[0,0.5],[1,0.5]];portConstraint=eastwest;" vertex="1" parent="037IKLmDIAsnG5Udz_Qm-8">
          <mxGeometry y="210" width="180" height="30" as="geometry" />
        </mxCell>
        <mxCell id="037IKLmDIAsnG5Udz_Qm-57" value="" style="shape=partialRectangle;connectable=0;fillColor=none;top=0;left=0;bottom=0;right=0;editable=1;overflow=hidden;" vertex="1" parent="037IKLmDIAsnG5Udz_Qm-56">
          <mxGeometry width="30" height="30" as="geometry" />
        </mxCell>
        <mxCell id="037IKLmDIAsnG5Udz_Qm-58" value="ranking" style="shape=partialRectangle;connectable=0;fillColor=none;top=0;left=0;bottom=0;right=0;align=left;spacingLeft=6;overflow=hidden;" vertex="1" parent="037IKLmDIAsnG5Udz_Qm-56">
          <mxGeometry x="30" width="150" height="30" as="geometry" />
        </mxCell>
        <mxCell id="037IKLmDIAsnG5Udz_Qm-59" value="" style="shape=partialRectangle;collapsible=0;dropTarget=0;pointerEvents=0;fillColor=none;top=0;left=0;bottom=0;right=0;points=[[0,0.5],[1,0.5]];portConstraint=eastwest;" vertex="1" parent="037IKLmDIAsnG5Udz_Qm-8">
          <mxGeometry y="240" width="180" height="30" as="geometry" />
        </mxCell>
        <mxCell id="037IKLmDIAsnG5Udz_Qm-60" value="" style="shape=partialRectangle;connectable=0;fillColor=none;top=0;left=0;bottom=0;right=0;editable=1;overflow=hidden;" vertex="1" parent="037IKLmDIAsnG5Udz_Qm-59">
          <mxGeometry width="30" height="30" as="geometry" />
        </mxCell>
        <mxCell id="037IKLmDIAsnG5Udz_Qm-61" value="author_url" style="shape=partialRectangle;connectable=0;fillColor=none;top=0;left=0;bottom=0;right=0;align=left;spacingLeft=6;overflow=hidden;" vertex="1" parent="037IKLmDIAsnG5Udz_Qm-59">
          <mxGeometry x="30" width="150" height="30" as="geometry" />
        </mxCell>
        <mxCell id="037IKLmDIAsnG5Udz_Qm-27" value="Papers" style="shape=table;startSize=30;container=1;collapsible=1;childLayout=tableLayout;fixedRows=1;rowLines=0;fontStyle=1;align=center;resizeLast=1;" vertex="1" parent="1">
          <mxGeometry x="630" y="90" width="180" height="190" as="geometry" />
        </mxCell>
        <mxCell id="037IKLmDIAsnG5Udz_Qm-28" value="" style="shape=partialRectangle;collapsible=0;dropTarget=0;pointerEvents=0;fillColor=none;top=0;left=0;bottom=1;right=0;points=[[0,0.5],[1,0.5]];portConstraint=eastwest;" vertex="1" parent="037IKLmDIAsnG5Udz_Qm-27">
          <mxGeometry y="30" width="180" height="30" as="geometry" />
        </mxCell>
        <mxCell id="037IKLmDIAsnG5Udz_Qm-29" value="PK" style="shape=partialRectangle;connectable=0;fillColor=none;top=0;left=0;bottom=0;right=0;fontStyle=1;overflow=hidden;" vertex="1" parent="037IKLmDIAsnG5Udz_Qm-28">
          <mxGeometry width="30" height="30" as="geometry" />
        </mxCell>
        <mxCell id="037IKLmDIAsnG5Udz_Qm-30" value="paper_id" style="shape=partialRectangle;connectable=0;fillColor=none;top=0;left=0;bottom=0;right=0;align=left;spacingLeft=6;fontStyle=5;overflow=hidden;" vertex="1" parent="037IKLmDIAsnG5Udz_Qm-28">
          <mxGeometry x="30" width="150" height="30" as="geometry" />
        </mxCell>
        <mxCell id="037IKLmDIAsnG5Udz_Qm-31" value="" style="shape=partialRectangle;collapsible=0;dropTarget=0;pointerEvents=0;fillColor=none;top=0;left=0;bottom=0;right=0;points=[[0,0.5],[1,0.5]];portConstraint=eastwest;" vertex="1" parent="037IKLmDIAsnG5Udz_Qm-27">
          <mxGeometry y="60" width="180" height="30" as="geometry" />
        </mxCell>
        <mxCell id="037IKLmDIAsnG5Udz_Qm-32" value="" style="shape=partialRectangle;connectable=0;fillColor=none;top=0;left=0;bottom=0;right=0;editable=1;overflow=hidden;" vertex="1" parent="037IKLmDIAsnG5Udz_Qm-31">
          <mxGeometry width="30" height="30" as="geometry" />
        </mxCell>
        <mxCell id="037IKLmDIAsnG5Udz_Qm-33" value="title" style="shape=partialRectangle;connectable=0;fillColor=none;top=0;left=0;bottom=0;right=0;align=left;spacingLeft=6;overflow=hidden;" vertex="1" parent="037IKLmDIAsnG5Udz_Qm-31">
          <mxGeometry x="30" width="150" height="30" as="geometry" />
        </mxCell>
        <mxCell id="037IKLmDIAsnG5Udz_Qm-34" value="" style="shape=partialRectangle;collapsible=0;dropTarget=0;pointerEvents=0;fillColor=none;top=0;left=0;bottom=0;right=0;points=[[0,0.5],[1,0.5]];portConstraint=eastwest;" vertex="1" parent="037IKLmDIAsnG5Udz_Qm-27">
          <mxGeometry y="90" width="180" height="30" as="geometry" />
        </mxCell>
        <mxCell id="037IKLmDIAsnG5Udz_Qm-35" value="" style="shape=partialRectangle;connectable=0;fillColor=none;top=0;left=0;bottom=0;right=0;editable=1;overflow=hidden;" vertex="1" parent="037IKLmDIAsnG5Udz_Qm-34">
          <mxGeometry width="30" height="30" as="geometry" />
        </mxCell>
        <mxCell id="037IKLmDIAsnG5Udz_Qm-36" value="year" style="shape=partialRectangle;connectable=0;fillColor=none;top=0;left=0;bottom=0;right=0;align=left;spacingLeft=6;overflow=hidden;" vertex="1" parent="037IKLmDIAsnG5Udz_Qm-34">
          <mxGeometry x="30" width="150" height="30" as="geometry" />
        </mxCell>
        <mxCell id="037IKLmDIAsnG5Udz_Qm-37" value="" style="shape=partialRectangle;collapsible=0;dropTarget=0;pointerEvents=0;fillColor=none;top=0;left=0;bottom=0;right=0;points=[[0,0.5],[1,0.5]];portConstraint=eastwest;" vertex="1" parent="037IKLmDIAsnG5Udz_Qm-27">
          <mxGeometry y="120" width="180" height="30" as="geometry" />
        </mxCell>
        <mxCell id="037IKLmDIAsnG5Udz_Qm-38" value="" style="shape=partialRectangle;connectable=0;fillColor=none;top=0;left=0;bottom=0;right=0;editable=1;overflow=hidden;" vertex="1" parent="037IKLmDIAsnG5Udz_Qm-37">
          <mxGeometry width="30" height="30" as="geometry" />
        </mxCell>
        <mxCell id="037IKLmDIAsnG5Udz_Qm-39" value="abstract" style="shape=partialRectangle;connectable=0;fillColor=none;top=0;left=0;bottom=0;right=0;align=left;spacingLeft=6;overflow=hidden;" vertex="1" parent="037IKLmDIAsnG5Udz_Qm-37">
          <mxGeometry x="30" width="150" height="30" as="geometry" />
        </mxCell>
        <mxCell id="037IKLmDIAsnG5Udz_Qm-62" value="" style="shape=partialRectangle;collapsible=0;dropTarget=0;pointerEvents=0;fillColor=none;top=0;left=0;bottom=0;right=0;points=[[0,0.5],[1,0.5]];portConstraint=eastwest;" vertex="1" parent="037IKLmDIAsnG5Udz_Qm-27">
          <mxGeometry y="150" width="180" height="30" as="geometry" />
        </mxCell>
        <mxCell id="037IKLmDIAsnG5Udz_Qm-63" value="" style="shape=partialRectangle;connectable=0;fillColor=none;top=0;left=0;bottom=0;right=0;editable=1;overflow=hidden;" vertex="1" parent="037IKLmDIAsnG5Udz_Qm-62">
          <mxGeometry width="30" height="30" as="geometry" />
        </mxCell>
        <mxCell id="037IKLmDIAsnG5Udz_Qm-64" value="paper_url" style="shape=partialRectangle;connectable=0;fillColor=none;top=0;left=0;bottom=0;right=0;align=left;spacingLeft=6;overflow=hidden;" vertex="1" parent="037IKLmDIAsnG5Udz_Qm-62">
          <mxGeometry x="30" width="150" height="30" as="geometry" />
        </mxCell>
        <mxCell id="037IKLmDIAsnG5Udz_Qm-43" value="Author-paper" style="shape=table;startSize=30;container=1;collapsible=1;childLayout=tableLayout;fixedRows=1;rowLines=0;fontStyle=1;align=center;resizeLast=1;" vertex="1" parent="1">
          <mxGeometry x="335" y="90" width="180" height="150" as="geometry" />
        </mxCell>
        <mxCell id="037IKLmDIAsnG5Udz_Qm-44" value="" style="shape=partialRectangle;collapsible=0;dropTarget=0;pointerEvents=0;fillColor=none;top=0;left=0;bottom=0;right=0;points=[[0,0.5],[1,0.5]];portConstraint=eastwest;" vertex="1" parent="037IKLmDIAsnG5Udz_Qm-43">
          <mxGeometry y="30" width="180" height="30" as="geometry" />
        </mxCell>
        <mxCell id="037IKLmDIAsnG5Udz_Qm-45" value="PK,FK1" style="shape=partialRectangle;connectable=0;fillColor=none;top=0;left=0;bottom=0;right=0;fontStyle=1;overflow=hidden;" vertex="1" parent="037IKLmDIAsnG5Udz_Qm-44">
          <mxGeometry width="60" height="30" as="geometry" />
        </mxCell>
        <mxCell id="037IKLmDIAsnG5Udz_Qm-46" value="author_id" style="shape=partialRectangle;connectable=0;fillColor=none;top=0;left=0;bottom=0;right=0;align=left;spacingLeft=6;fontStyle=5;overflow=hidden;" vertex="1" parent="037IKLmDIAsnG5Udz_Qm-44">
          <mxGeometry x="60" width="120" height="30" as="geometry" />
        </mxCell>
        <mxCell id="037IKLmDIAsnG5Udz_Qm-47" value="" style="shape=partialRectangle;collapsible=0;dropTarget=0;pointerEvents=0;fillColor=none;top=0;left=0;bottom=1;right=0;points=[[0,0.5],[1,0.5]];portConstraint=eastwest;" vertex="1" parent="037IKLmDIAsnG5Udz_Qm-43">
          <mxGeometry y="60" width="180" height="30" as="geometry" />
        </mxCell>
        <mxCell id="037IKLmDIAsnG5Udz_Qm-48" value="PK,FK2" style="shape=partialRectangle;connectable=0;fillColor=none;top=0;left=0;bottom=0;right=0;fontStyle=1;overflow=hidden;" vertex="1" parent="037IKLmDIAsnG5Udz_Qm-47">
          <mxGeometry width="60" height="30" as="geometry" />
        </mxCell>
        <mxCell id="037IKLmDIAsnG5Udz_Qm-49" value="paper_id" style="shape=partialRectangle;connectable=0;fillColor=none;top=0;left=0;bottom=0;right=0;align=left;spacingLeft=6;fontStyle=5;overflow=hidden;" vertex="1" parent="037IKLmDIAsnG5Udz_Qm-47">
          <mxGeometry x="60" width="120" height="30" as="geometry" />
        </mxCell>
        <mxCell id="037IKLmDIAsnG5Udz_Qm-50" value="" style="shape=partialRectangle;collapsible=0;dropTarget=0;pointerEvents=0;fillColor=none;top=0;left=0;bottom=0;right=0;points=[[0,0.5],[1,0.5]];portConstraint=eastwest;" vertex="1" parent="037IKLmDIAsnG5Udz_Qm-43">
          <mxGeometry y="90" width="180" height="30" as="geometry" />
        </mxCell>
        <mxCell id="037IKLmDIAsnG5Udz_Qm-51" value="" style="shape=partialRectangle;connectable=0;fillColor=none;top=0;left=0;bottom=0;right=0;editable=1;overflow=hidden;" vertex="1" parent="037IKLmDIAsnG5Udz_Qm-50">
          <mxGeometry width="60" height="30" as="geometry" />
        </mxCell>
        <mxCell id="037IKLmDIAsnG5Udz_Qm-52" value="" style="shape=partialRectangle;connectable=0;fillColor=none;top=0;left=0;bottom=0;right=0;align=left;spacingLeft=6;overflow=hidden;" vertex="1" parent="037IKLmDIAsnG5Udz_Qm-50">
          <mxGeometry x="60" width="120" height="30" as="geometry" />
        </mxCell>
        <mxCell id="037IKLmDIAsnG5Udz_Qm-53" value="" style="shape=partialRectangle;collapsible=0;dropTarget=0;pointerEvents=0;fillColor=none;top=0;left=0;bottom=0;right=0;points=[[0,0.5],[1,0.5]];portConstraint=eastwest;" vertex="1" parent="037IKLmDIAsnG5Udz_Qm-43">
          <mxGeometry y="120" width="180" height="30" as="geometry" />
        </mxCell>
        <mxCell id="037IKLmDIAsnG5Udz_Qm-54" value="" style="shape=partialRectangle;connectable=0;fillColor=none;top=0;left=0;bottom=0;right=0;editable=1;overflow=hidden;" vertex="1" parent="037IKLmDIAsnG5Udz_Qm-53">
          <mxGeometry width="60" height="30" as="geometry" />
        </mxCell>
        <mxCell id="037IKLmDIAsnG5Udz_Qm-55" value="" style="shape=partialRectangle;connectable=0;fillColor=none;top=0;left=0;bottom=0;right=0;align=left;spacingLeft=6;overflow=hidden;" vertex="1" parent="037IKLmDIAsnG5Udz_Qm-53">
          <mxGeometry x="60" width="120" height="30" as="geometry" />
        </mxCell>
        <mxCell id="037IKLmDIAsnG5Udz_Qm-65" value="" style="edgeStyle=entityRelationEdgeStyle;fontSize=12;html=1;endArrow=ERoneToMany;endSize=12;" edge="1" parent="1" source="037IKLmDIAsnG5Udz_Qm-9" target="037IKLmDIAsnG5Udz_Qm-44">
          <mxGeometry width="100" height="100" relative="1" as="geometry">
            <mxPoint x="370" y="310" as="sourcePoint" />
            <mxPoint x="470" y="210" as="targetPoint" />
          </mxGeometry>
        </mxCell>
        <mxCell id="037IKLmDIAsnG5Udz_Qm-66" value="" style="edgeStyle=entityRelationEdgeStyle;fontSize=12;html=1;endArrow=ERoneToMany;endSize=12;" edge="1" parent="1" source="037IKLmDIAsnG5Udz_Qm-28" target="037IKLmDIAsnG5Udz_Qm-47">
          <mxGeometry width="100" height="100" relative="1" as="geometry">
            <mxPoint x="250" y="229.5" as="sourcePoint" />
            <mxPoint x="380" y="229.5" as="targetPoint" />
          </mxGeometry>
        </mxCell>
      </root>
    </mxGraphModel>
  </diagram>
</mxfile>
